
<svg xmlns="http://www.w3.org/2000/svg" version="1.1" xmlns:xlink="http://www.w3.org/1999/xlink" preserveAspectRatio="none" x="0px" y="0px" width="80px" height="80px" viewBox="0 0 80 80">
<defs>
<g id="Layer0_0_FILL">
<path fill="#121212" stroke="none" d="
M 80 11.5
Q 80 0 68.5 0
L 11.5 0
Q 0 0 0 11.5
L 0 68.45
Q 0 80 11.5 80
L 68.5 80
Q 80 80 80 68.45
L 80 11.5 Z"/>
</g>

<g id="Layer0_1_FILL">
<path fill="#FFFFFF" stroke="none" d="
M 47.75 24.55
Q 47.3 24.1 46.7 24.1
L 21.2 24.1
Q 11.7 24.1 11.7 33.6
L 11.7 46.4
Q 11.7 55.9 21.2 55.9
L 29.5 55.9
Q 29.6 55.9 29.7 55.9 32.7 55.55 34.9 53.3
L 34.85 53.3
Q 35.05 53.1 35.3 52.85 35.45 52.7 35.55 52.55 35.65 52.35 35.85 52.15 35.95 52.05 36.05 51.95 36.05 51.9 36.1 51.85
L 36.1 51.9
Q 37.55 50.45 39.55 50.3 39.75 50.3 39.95 50.3 42.2 50.3 43.75 51.85 43.85 52 43.95 52.1 44 52.2 44.1 52.25 44.3 52.45 44.45 52.7 44.55 52.85 44.65 52.95 44.8 53.1 45 53.3 46.85 55.15 49.25 55.7
L 49.2 55.7
Q 49.65 55.85 50.25 55.9 50.3 55.9 50.4 55.9
L 52.3 55.9
Q 52.35 55.9 52.4 55.9
L 58.8 55.9
Q 60 55.9 61.1 55.75 68.3 54.65 68.3 46.4
L 68.3 33.6
Q 68.3 30.8 67.45 28.85 65.45 24.1 58.8 24.1
L 56.55 24.1
Q 55.95 24.1 55.5 24.55 55.05 25 55.05 25.6 55.05 26.2 55.5 26.65 55.95 27.1 56.55 27.1
L 58.8 27.1
Q 63.25 27.1 64.7 30.05 65.3 31.5 65.3 33.6
L 65.3 46.4
Q 65.3 51.95 60.65 52.8 59.8 52.9 58.8 52.9
L 52.4 52.9
Q 52.35 52.9 52.3 52.9
L 50.6 52.9
Q 50.25 52.85 49.95 52.8
L 49.9 52.8
Q 48.35 52.45 47.1 51.2 47 51.1 46.95 51.05 46.65 50.6 46.35 50.3 46.15 50 45.85 49.75 43.4 47.3 39.95 47.3 39.75 47.3 39.55 47.3
L 39.5 47.3
Q 36.3 47.5 34 49.75 33.75 49.95 33.6 50.2 33.25 50.55 33.05 50.95 32.9 51.05 32.75 51.2 31.3 52.65 29.35 52.9
L 21.2 52.9
Q 14.7 52.9 14.7 46.4
L 14.7 33.6
Q 14.7 27.1 21.2 27.1
L 46.7 27.1
Q 47.3 27.1 47.75 26.65 48.2 26.2 48.2 25.6 48.2 25 47.75 24.55
M 54.95 42.75
Q 54.25 42 53.25 42 52.2 42 51.5 42.75 50.8 43.45 50.8 44.45 50.8 45.5 51.5 46.2 52.2 46.9 53.25 46.9 54.25 46.9 54.95 46.2 55.7 45.5 55.7 44.45 55.7 43.45 54.95 42.75
M 56.7 37.6
Q 55.95 38.3 55.95 39.3 55.95 40.35 56.7 41.05 57.4 41.75 58.4 41.75 59.45 41.75 60.15 41.05 60.85 40.35 60.85 39.3 60.85 38.3 60.15 37.6 59.45 36.85 58.4 36.85 57.4 36.85 56.7 37.6
M 50.55 39.3
Q 50.55 38.3 49.85 37.6 49.15 36.85 48.1 36.85 47.1 36.85 46.4 37.6 45.65 38.3 45.65 39.3 45.65 40.35 46.4 41.05 47.1 41.75 48.1 41.75 49.15 41.75 49.85 41.05 50.55 40.35 50.55 39.3
M 54.95 32.45
Q 54.25 31.7 53.25 31.7 52.2 31.7 51.5 32.45 50.8 33.15 50.8 34.15 50.8 35.2 51.5 35.9 52.2 36.6 53.25 36.6 54.25 36.6 54.95 35.9 55.7 35.2 55.7 34.15 55.7 33.15 54.95 32.45 Z"/>
</g>

<path id="Layer0_1_1_STROKES" stroke="#FFFFFF" stroke-width="4" stroke-linejoin="round" stroke-linecap="round" fill="none" d="
M 23.979918670654296 32.559896850585936
L 23.979918670654296 33.87989349365234
M 18.699932098388672 39.15988006591797
L 17.379935455322265 39.15988006591797
M 23.979918670654296 44.439866638183595
L 23.979918670654296 45.75986328125
M 30.579901885986324 39.15988006591797
L 29.25990524291992 39.15988006591797"/>
</defs>

<g transform="matrix( 1, 0, 0, 1, 0,0) ">
<use xlink:href="#Layer0_0_FILL"/>
</g>

<g transform="matrix( 1.1999969482421875, 0, 0, 1.1999969482421875, -8,-8) ">
<use xlink:href="#Layer0_1_FILL"/>

<use xlink:href="#Layer0_1_1_STROKES" transform="matrix( 0.8333282470703125, 0, 0, 0.8333282470703125, 6.65,6.65) "/>
</g>
</svg>
